<?xml version="1.0" encoding="UTF-8" standalone="no"?>
<svg width="100px" height="100px" viewBox="0 0 100 100" version="1.1" xmlns="http://www.w3.org/2000/svg" xmlns:xlink="http://www.w3.org/1999/xlink" xmlns:sketch="http://www.bohemiancoding.com/sketch/ns">
    <!-- Generator: Sketch 3.4.3 (16618) - http://www.bohemiancoding.com/sketch -->
    <title>100</title>
    <desc>Created with Sketch.</desc>
    <defs></defs>
    <g id="Page-1" stroke="none" stroke-width="1" fill="none" fill-rule="evenodd" sketch:type="MSPage">
        <g id="100" sketch:type="MSArtboardGroup" fill="#FFFFFF">
            <g id="Logo" sketch:type="MSLayerGroup" transform="translate(0.000000, 1.000000)">
                <path d="M80.1006349,96.7421267 C83.4220635,92.9294751 86.3379365,88.7710121 88.8307937,84.3857093 C91.3331746,80.0035791 93.4188889,75.3850915 95.0061905,70.6087679 C96.5879365,65.8292717 97.6665079,60.8871806 98.064127,55.8935351 C98.1585714,54.64671 98.214127,53.4022643 98.2236508,52.1443352 C98.2307937,50.9062347 98.1871429,49.650685 98.0911111,48.4125845 C97.898254,45.9292452 97.4807937,43.4689072 96.8284127,41.0783659 C95.5331746,36.2901451 93.2315873,31.8009403 90.1069841,27.9763915 C86.9942857,24.1415319 83.0990476,20.968949 78.8125397,18.4919548 C74.5307937,16.0022704 69.8593651,14.1835872 65.0387302,12.979592 C60.2268254,11.7763899 55.2426984,11.1767717 50.2990476,11.2100839 C45.3307937,11.2418097 40.3847619,11.9048795 35.5950794,13.1691538 C30.8125397,14.4334281 26.1887302,16.3020795 21.9752381,18.8298349 C17.7490476,21.3290371 13.9466667,24.5190693 10.9077778,28.3182373 C7.84507937,32.0991631 5.59746032,36.5177779 4.34349206,41.2306499 C3.04349206,45.9395561 2.72206349,50.9094073 3.10142857,55.8451532 C3.46253968,60.7904168 4.52285714,65.6936438 6.03873016,70.4533113 C7.57206349,75.2121857 9.58396825,79.8346391 12.0125397,84.2342185 C13.2180952,86.4463019 14.5284127,88.5996926 15.9450794,90.686459 C17.3657143,92.7660871 18.8784127,94.7925745 20.4911111,96.7452993 L20.2426984,96.9665869 C13.2220635,89.6061945 7.70063492,80.7491361 4.16650794,71.0949662 C2.39746032,66.2734333 1.16809524,61.2234744 0.618095238,56.067234 C0.076031746,50.918925 0.298253968,45.6151595 1.57603175,40.5065078 C2.86650794,35.4057876 5.25301587,30.5612535 8.53,26.4257916 C11.8125397,22.2839846 15.9371429,18.8869414 20.4363492,16.2322827 C24.9585714,13.5958662 29.8530159,11.689937 34.8879365,10.4240764 C39.9212698,9.16218158 45.114127,8.53321701 50.2895238,8.55780453 C55.4855556,8.59825496 60.6442857,9.29225748 65.6530159,10.612052 C70.6514286,11.9366054 75.4990476,13.8964685 79.9514286,16.566197 C84.3895238,19.2470296 88.4236508,22.6599357 91.6315873,26.7644649 C94.8442857,30.8570968 97.1760317,35.6326273 98.4307937,40.6587918 C99.6966667,45.6801975 99.9165079,50.9292359 99.395873,56.0140932 C98.8831746,61.1219518 97.6720635,66.1274945 95.9712698,70.9371302 C92.5419048,80.5516428 87.1942857,89.4523242 80.3490476,96.9634143 L80.1006349,96.7421267 Z" id="Fill-4" sketch:type="MSShapeGroup"></path>
                <path d="M31.4453175,85.8324864 C31.0603968,85.1876589 30.7000794,84.5301411 30.3278571,83.8781753 L29.2516667,81.9040356 C28.5365873,80.5858274 27.8476984,79.2588946 27.1643651,77.9248235 C25.7953175,75.2638195 24.4770635,72.5806075 23.1929365,69.8807394 C21.9072222,67.1840439 20.6580159,64.4714855 19.4389683,61.7470299 C18.832619,60.3828193 18.2199206,59.0194017 17.632619,57.6472596 L16.7397619,55.5953916 C16.5834127,55.2567184 16.5096032,54.8815604 16.585,54.443744 C16.6611905,54.0067207 16.837381,53.5252812 17.3223016,52.909007 L17.437381,52.859832 C18.2199206,52.9320082 18.6897619,53.1366398 19.0580159,53.3856876 C19.4286508,53.6315628 19.6476984,53.9408896 19.7865873,54.2882874 L20.6580159,56.3528458 C21.2476984,57.7265742 21.8127778,59.1058546 22.3818254,60.4867213 C23.5175397,63.2468685 24.6230952,66.0204991 25.6897619,68.811579 C26.7611905,71.6026588 27.7969048,74.4048427 28.7834127,77.2324072 C29.2762698,78.6434135 29.7596032,80.0591786 30.2238889,81.4876341 L30.9127778,83.6251618 C31.1294444,84.3429587 31.3572222,85.0599625 31.5611905,85.786484 L31.4453175,85.8324864 Z" id="Fill-5" sketch:type="MSShapeGroup"></path>
                <path d="M69.070873,85.7868012 C69.2557937,85.0935919 69.470873,84.4162454 69.6684921,83.7357264 L70.3113492,81.7028938 C70.7438889,80.3513735 71.1970635,79.0061983 71.6621429,77.6649889 C72.586746,74.9841563 73.557381,72.3223592 74.5692857,69.6780114 C75.573254,67.0296978 76.6145238,64.3980402 77.6899206,61.7822456 C78.2296032,60.4759346 78.7661111,59.1656578 79.3200794,57.8664851 L80.1494444,55.9105877 C80.2788095,55.5814322 80.4915079,55.2887615 80.855,55.0579561 C81.2129365,54.8271506 81.6756349,54.6407614 82.4486508,54.5892069 L82.5653175,54.6391751 C83.0581746,55.2340344 83.2430952,55.6964384 83.3264286,56.1160125 C83.4097619,56.5387591 83.3423016,56.8932953 83.1938889,57.2153125 L82.3494444,59.1616921 C81.7883333,60.4600716 81.2089683,61.7481403 80.6327778,63.0409679 C79.4740476,65.6250367 78.2915079,68.1916563 77.0637302,70.7471718 C75.8430952,73.2995148 74.5859524,75.8383743 73.2835714,78.3581983 C72.6296032,79.6145411 71.9700794,80.8748497 71.286746,82.1161228 L70.2534127,83.9855673 C69.8994444,84.6018415 69.5502381,85.2236678 69.1843651,85.8328037 L69.070873,85.7868012 Z" id="Fill-6" sketch:type="MSShapeGroup"></path>
                <path d="M39.4833333,81.752862 C38.0349206,77.2406559 36.9785714,72.61503 35.7579365,68.0742707 L35.6444444,67.645972 L35.5880952,67.4349952 L35.584127,67.4223049 C35.5833333,67.4080283 35.5952381,67.4698936 35.5880952,67.438961 L35.5793651,67.4104077 L35.5642857,67.3604395 L35.5333333,67.2533649 L35.2769841,66.4046989 L34.7746032,64.6954699 C34.4420635,63.5604783 34.115873,62.4207279 33.8,61.2770118 C33.1880952,58.9911657 32.6031746,56.6942157 32.0380952,54.3948862 C30.9055556,49.7986067 29.902381,45.1777396 28.9039683,40.5703561 L27.4230159,33.7104386 C27.1198413,32.4985119 26.9103175,31.3119659 26.6714286,30.1928373 C26.5412698,29.6344627 26.5031746,29.0745018 26.5912698,28.4788494 C26.684127,27.8760586 26.8611111,27.2597844 27.2992063,26.4698112 L27.4166667,26.4222225 C28.2753968,26.7363082 28.7984127,27.2494735 29.1952381,27.7864331 C29.5833333,28.3313243 29.8047619,28.9222178 29.915873,29.5194566 C30.1595238,30.708382 30.3563492,31.8505119 30.6206349,32.9283969 L30.9968254,34.7105954 L31.3507937,36.4475845 L32.0396825,39.9263217 C32.9452381,44.5614654 33.8079365,49.1966091 34.6785714,53.8230281 C35.1134921,56.1358411 35.5666667,58.443102 36.0444444,60.7463973 L36.7468254,64.2029264 L37.1150794,65.9296046 L37.3039683,66.7965129 L37.3579365,67.0408018 L37.3960317,67.2612963 L37.4753968,67.6975265 C38.2706349,72.3786726 38.8928571,77.0455421 39.6047619,81.7219293 L39.4833333,81.752862 Z" id="Fill-7" sketch:type="MSShapeGroup"></path>
                <path d="M60.891746,81.2447729 C61.6250794,76.6096292 62.4314286,72.0046251 63.2092063,67.3916895 L64.4084127,60.4778381 L65.6584127,53.5735045 C66.4973016,48.9700867 67.3877778,44.3738071 68.3393651,39.7830796 C68.8179365,37.4916816 69.3052381,35.197111 69.8226984,32.9104718 L70.6044444,29.4817028 C70.728254,28.9066722 70.9496825,28.3546427 71.3107937,27.8398912 C71.6869841,27.3267259 72.1607937,26.8373549 72.9726984,26.4304712 L73.0949206,26.4614039 C73.628254,27.1918911 73.8322222,27.8398912 73.9338095,28.4640968 C74.0322222,29.08513 73.9790476,29.6728509 73.8346032,30.239157 L73.0369841,33.6433385 L71.4671429,40.4667712 C70.4266667,45.0178415 69.3965079,49.5776363 68.31,54.1287065 L66.6695238,60.9553118 L64.928254,67.7612954 C63.7179365,72.2893644 62.4750794,76.8134677 61.0147619,81.2757056 L60.891746,81.2447729 Z" id="Fill-8" sketch:type="MSShapeGroup"></path>
                <path d="M0.343333333,51.3004281 C0.384603175,45.9165549 0.756825397,40.5001627 1.78857143,35.1797411 C2.83777778,29.8648715 4.25365079,24.5745895 6.38777778,19.5008362 C6.92428571,18.2341825 7.5084127,16.9825985 8.15603175,15.7643267 C8.79253968,14.5365371 9.49571429,13.3396802 10.26,12.1777217 C11.0139683,11.0062454 11.8473016,9.88473734 12.7377778,8.80288656 C13.6266667,7.71786319 14.5869841,6.68598059 15.6298413,5.72627426 C17.7068254,3.81479304 20.1353968,2.19043057 22.8433333,1.22517222 C25.5330159,0.248809817 28.525873,0.0148318252 31.1909524,0.773872293 L31.1592063,1.10620036 C28.4639683,1.33304004 26.0052381,2.1388761 23.8028571,3.37063143 C21.5996825,4.60238675 19.6449206,6.22278349 17.8679365,8.04067351 C16.9766667,8.94723908 16.1361905,9.910118 15.3290476,10.906309 C14.5250794,11.9080521 13.775873,12.9573839 13.0425397,14.0233718 C12.3234921,15.0972911 11.6385714,16.2005568 10.9726984,17.322858 C10.3187302,18.449125 9.68698413,19.5968069 9.08619048,20.7619379 C6.67984127,25.4232554 4.76396825,30.4057969 3.40206349,35.549347 C2.02349206,40.6921039 1.10603175,45.9704888 0.485396825,51.3004281 L0.343333333,51.3004281 Z" id="Fill-9" sketch:type="MSShapeGroup"></path>
            </g>
        </g>
    </g>
</svg>